<svg width="1918" height="546" viewBox="0 0 1918 546" fill="none" xmlns="http://www.w3.org/2000/svg">
<path d="M279.729 533V310.25H123.729V533H0.728519V13.25H123.729V214.25H279.729V13.25H402.729V533H279.729ZM710.24 0.499971C784.24 0.499971 841.74 24.25 882.74 71.75C924.24 119.25 944.99 186.25 944.99 272.75C944.99 329.25 935.49 378 916.49 419C897.99 460 870.99 491.5 835.49 513.5C800.49 535 758.74 545.75 710.24 545.75C661.74 545.75 619.99 535 584.99 513.5C549.99 492 522.99 461 503.99 420.5C485.49 379.5 476.24 330.25 476.24 272.75C476.24 216.75 485.49 168.25 503.99 127.25C522.99 86.25 549.99 55 584.99 33.5C619.99 11.5 661.74 0.499971 710.24 0.499971ZM710.24 90.5C674.74 90.5 648.24 105 630.74 134C613.74 162.5 605.24 208.75 605.24 272.75C605.24 336.75 613.99 383.25 631.49 412.25C648.99 441.25 675.24 455.75 710.24 455.75C746.24 455.75 772.74 441.5 789.74 413C807.24 384 815.99 337.25 815.99 272.75C815.99 208.25 807.24 161.75 789.74 133.25C772.24 104.75 745.74 90.5 710.24 90.5ZM1528.2 533H1407.45L1398.45 329.75C1395.95 281.25 1394.7 238 1394.7 200C1394.7 171 1395.45 143.5 1396.95 117.5L1316.7 478.25H1200.45L1114.95 117.5C1117.95 161 1119.45 202 1119.45 240.5C1119.45 269.5 1118.7 299.75 1117.2 331.25L1108.2 533H988.203L1027.2 13.25H1182.45L1260.45 365.75L1333.2 13.25H1489.2L1528.2 533ZM1920.55 13.25L1907.8 101H1724.8V225.5H1884.55V311.75H1724.8V444.5H1920.55V533H1601.8V13.25H1920.55Z" fill="#D3D3D3"/>
</svg>
