<svg width="118" height="57" viewBox="0 0 118 57" fill="none" xmlns="http://www.w3.org/2000/svg">
<path d="M112.374 1.48417C113.056 0.286683 114.222 0.0564981 115.309 0.0015875C116.396 -0.0533231 118.433 1.31943 117.918 3.62568C117.403 5.93192 116.614 5.93192 115.472 5.93192C114.183 5.93192 113.107 5.8505 112.374 4.7788C111.65 3.72025 111.74 2.59961 112.374 1.48417Z" fill="black"/>
<path fill-rule="evenodd" clip-rule="evenodd" d="M0.0325057 3.13148C0.141206 2.58238 0.652098 1.48417 1.82606 1.48417H9.32639C10.9025 1.53908 14.0451 2.05581 14.8701 2.47256C15.8484 2.96675 16.9898 3.79041 17.3159 4.61407C17.642 5.43773 17.4789 6.75558 17.3159 7.08504C17.1096 7.50179 16.6344 8.20068 16.0115 8.73236C15.7839 8.92662 15.5414 9.04975 15.315 9.16472C15.0849 9.28155 14.8714 9.38996 14.7071 9.55602C14.381 9.88548 14.5918 10.2632 14.7071 10.3797C14.8701 10.5444 16.194 11.2083 16.8267 11.3681C17.4789 11.5328 18.1311 11.6975 18.4572 11.5328V10.0502C18.5116 9.83057 18.9464 9.39129 18.9464 9.39129C19.2181 9.06183 20.0877 8.4029 20.0877 8.4029C20.2508 8.29308 21.066 8.07344 21.066 8.07344C21.2291 7.96361 21.6204 7.74397 21.8813 7.74397C21.9649 7.74397 22.1345 7.73313 22.343 7.71979C22.9474 7.68113 23.8797 7.6215 24.0009 7.74397C24.0553 7.79888 24.1096 7.83549 24.164 7.8721C24.2727 7.94531 24.3814 8.01852 24.4901 8.23817C24.5716 8.4029 24.6531 8.48526 24.7347 8.56763C24.8162 8.65 24.8977 8.73236 24.9792 8.89709L25.3053 9.55602C25.4684 9.88548 25.6315 10.2149 25.6315 10.5444C25.6315 10.8739 26.1206 14.0038 26.2837 14.8274C26.3053 14.9368 26.3298 15.0578 26.3561 15.1873C26.5276 16.0332 26.7728 17.243 26.7728 17.9573C26.7728 18.781 26.9359 20.0989 27.262 20.593C27.3363 20.7057 27.3937 20.827 27.4496 20.9451C27.6389 21.3449 27.8111 21.7086 28.5664 21.5814C28.6538 21.5667 28.7387 21.5533 28.8211 21.5403C29.6613 21.4075 30.2552 21.3136 30.8491 20.2636C31.3708 19.3411 31.0665 12.7408 30.8491 9.55602C30.9578 9.00691 31.5665 7.94165 33.1318 8.07344C33.3418 8.09112 33.5406 8.10691 33.7283 8.12182C35.2891 8.24576 36.0842 8.30891 36.2297 8.89709C36.3602 9.42424 36.2841 14.7176 36.2297 17.2984H40.143C40.7952 17.2984 41.6104 18.2868 41.9365 18.781C41.9909 19.7145 42.4909 21.5814 44.0562 21.5814C46.0128 21.5814 47.3172 17.9573 47.3172 17.9573L46.3389 16.969C44.7084 16.3649 41.2517 14.8933 40.4691 13.839C39.4908 12.5212 39.9799 10.2149 39.9799 10.2149C39.9799 10.2149 41.2843 8.23817 43.2409 8.23817C44.654 7.85379 47.9042 7.71103 49.5999 10.2149C51.7195 13.3449 46.1758 11.5328 45.8497 10.5444C45.5236 9.55602 44.5453 8.89709 43.2409 9.72075C41.9365 10.5444 45.1975 13.0154 45.1975 13.0154C46.665 13.7292 49.7629 15.1569 50.4151 15.1569C50.6448 15.1569 50.8487 15.17 51.0266 15.1814C51.4802 15.2105 51.7655 15.2288 51.8826 14.9922C51.9091 14.9387 51.9184 14.7766 51.9321 14.537C52.0029 13.3009 52.1918 10.001 55.4697 8.89709C56.0132 8.56763 57.4589 7.87576 58.8938 7.74397C59.9337 7.64846 60.3706 7.60833 60.8085 7.59146C61.1258 7.57924 61.4436 7.57924 61.9917 7.57924C62.8613 7.52433 64.894 7.57924 66.068 8.23817C67.5355 9.06183 68.3507 9.55602 69.329 10.5444C70.1117 11.3351 70.416 11.0935 70.4704 10.8739L70.3073 5.60246C70.1986 5.32791 69.8182 4.7788 69.166 4.7788C68.7769 4.7788 68.6478 4.70377 68.5128 4.62532C68.3649 4.53938 68.2099 4.44934 67.6985 4.44934C67.1599 4.44934 66.5225 4.39941 65.9495 4.35453C65.4817 4.31789 65.0568 4.2846 64.7636 4.2846C64.1114 4.2846 64.4375 2.96675 64.7636 2.96675C64.8772 2.96675 65.0501 2.92678 65.2755 2.87467C65.6972 2.7772 66.3025 2.63729 67.0463 2.63729C67.5221 2.63729 68.0545 2.52278 68.62 2.40117C69.4111 2.23106 70.2668 2.04703 71.1226 2.14309C72.2965 2.27488 79.3295 1.75872 82.6992 1.48417C83.6231 2.25291 84.4927 4.44934 82.3731 4.94353H79.2751C79.1664 4.83371 78.9164 4.7788 78.786 5.43773C78.6555 6.09665 78.3511 7.9087 78.2968 8.73236C78.1881 9.28147 77.9707 10.4785 77.9707 10.8739C77.9707 11.049 77.8854 11.5321 77.7857 12.0972C77.6602 12.808 77.5118 13.6485 77.4815 14.1685C77.5945 14.0055 77.7051 13.8431 77.8155 13.681C78.4489 12.7509 79.0752 11.8314 80.0904 10.8739C80.2038 10.7669 80.3119 10.6638 80.4161 10.5644C81.2609 9.75832 81.8525 9.19387 83.0253 8.73236C83.8853 8.39393 84.441 8.33936 85.3216 8.25288L85.471 8.23817C86.4216 8.14401 86.9682 8.12498 87.9168 8.23817C88.1692 8.26829 88.3939 8.36569 88.6052 8.45728C88.9337 8.59968 89.2298 8.72803 89.5473 8.56763C89.7103 8.48526 89.853 8.3926 89.9957 8.29994C90.4237 8.02196 90.8517 7.74397 91.83 7.74397C92.8735 7.74397 94.2214 8.29308 94.7649 8.56763C95.1997 8.4029 96.1019 8.07344 96.2324 8.07344C96.3628 8.07344 97.5911 7.96361 98.189 7.9087L100.309 8.23817L102.265 9.72075L103.244 11.3681L104.711 9.72075L107.32 8.23817L108.95 8.07344L110.418 8.56763L110.744 9.39129L110.418 10.5444L108.95 12.027L107.32 13.839L106.178 14.9922L105.852 15.6511L106.178 16.4748L106.831 17.1337L108.135 18.6163L108.95 19.6047L109.603 20.593L111.07 21.0872V22.2404L109.929 22.8993L108.95 23.2288L107.646 23.064L105.852 22.8993L104.711 22.2404L103.244 21.4167L102.265 20.593L101.939 20.2636L101.287 20.9225V21.5814L101.124 22.4051L100.961 23.064L100.309 23.5582L99.3303 23.8877L97.8629 23.5582L97.0476 22.8993L96.5585 21.7462L96.2324 20.593L96.5585 19.6047L97.2107 18.4515L98.189 17.4631L98.6781 16.969V15.3216L98.0259 14.3332L97.2107 12.8507L96.5585 11.3681L95.5802 10.0502L94.7822 9.39129C94.7858 9.76434 94.7839 10.1983 94.7649 10.5444C94.7018 11.6945 94.5634 12.3902 94.3587 13.4202C94.3321 13.5536 94.3045 13.6927 94.2758 13.839C94.2077 14.1854 94.1283 14.4648 94.052 14.7331C93.9429 15.117 93.8402 15.4783 93.7866 15.9806C93.7047 16.7481 93.7047 17.1898 93.7866 17.9573C93.8776 18.8107 94.1127 19.6596 94.2758 20.0989C94.4388 20.5381 94.928 21.5814 95.5802 22.2404C96.3954 23.064 93.221 23.4887 91.6669 23.2288C90.815 23.0863 90.1238 22.5331 89.5405 22.0664C89.1795 21.7775 88.8599 21.5217 88.569 21.4167C87.8081 22.1305 85.6667 23.4594 83.1883 23.064C80.0904 22.5698 79.6012 22.2404 78.786 21.4167C78.1628 20.7871 77.2539 19.0026 77.2242 16.5781C76.8523 20.8121 76.6663 26.444 76.6663 26.8529C76.6663 27.0672 76.5043 28.4547 76.2846 30.3358L76.2846 30.3362L76.2845 30.3371C75.9978 32.7921 75.6129 36.0875 75.3619 38.7135C75.211 40.2921 75.1262 41.5859 75.0445 42.8311C74.9301 44.5767 74.8219 46.2269 74.5466 48.4327C74.2323 50.9512 73.5683 54.8572 73.5683 54.8572C73.5683 54.8572 73.234 57.0599 72.2639 56.9988C71.4501 56.9475 71.1226 55.1867 71.1226 55.1867C71.1226 55.1867 70.6279 51.3799 70.4704 48.9269C70.3425 46.9358 70.3073 45.8155 70.3073 43.8202C70.3073 43.571 70.3069 43.3546 70.3065 43.1604C70.3037 41.7994 70.3032 41.5284 70.4704 38.7135L70.9595 30.477C70.9595 30.477 71.0912 23.8485 70.9595 19.6047C70.3073 19.6047 69.8182 20.2636 69.6551 20.593L67.3724 22.2404L64.4375 23.064H61.0134L58.4046 22.8993L56.285 22.2404L54.0023 20.2636H52.6978L49.926 22.2404L46.828 23.064H43.2409L41.1213 22.8993L38.6755 22.2404L36.5558 21.252L35.7406 20.9225C35.1427 21.3618 33.8818 22.2404 33.6209 22.2404C33.36 22.2404 31.2295 22.7895 30.1969 23.064H26.9359L24.0009 21.9109L20.5769 19.4399H19.4355L18.1311 20.9225L15.5223 22.2404L12.5874 22.8993H4.43487L2.96741 22.2404L2.31521 19.9341L1.82606 16.1453C1.60866 14.9373 1.17386 12.4553 1.17386 12.1917C1.17386 11.9282 0.630357 9.11674 0.358607 7.74397C0.195556 6.26139 -0.0979348 3.26327 0.0325057 3.13148ZM8.80473 11.5328C8.80473 11.5328 8.93517 20.3954 9.45694 20.9225C10.1091 21.5814 15.6529 19.9325 17.4464 16.3084C18.4572 13.508 12.2288 11.3681 11.2505 11.3681C10.4678 11.3681 8.80473 11.5328 8.80473 11.5328ZM8.31558 8.23817L7.98948 3.29463C8.80473 3.29463 16.0115 4.61407 14.8701 6.09507C13.957 7.27988 10.12 8.01747 8.31558 8.23817ZM87.2321 10.8739C86.2538 11.3681 83.656 15.698 84.7863 20.593C85.471 23.5582 89.6778 12.027 87.2321 10.8739ZM61.0134 16.3084C60.6481 11.0358 63.3613 9.60882 64.7636 9.55444C66.3941 9.98241 69.4266 11.9324 68.5128 16.3084C67.5989 20.6845 65.4151 21.2068 64.4375 20.9209C63.394 20.9758 61.2483 20.1302 61.0134 16.3084Z" fill="black"/>
<path d="M111.07 21.0872V22.2404L111.722 22.4051L113.353 23.064H114.657L116.614 22.8993L117.103 22.2404V19.1105V16.969V13.839L117.429 10.8739V8.23817L115.472 6.92031H113.353L112.048 7.74397L111.722 11.2033L111.559 14.6627V17.4631V19.6047L111.07 21.0872Z" fill="black"/>
</svg>
