<svg width="10" height="15" viewBox="0 0 10 15" fill="none" xmlns="http://www.w3.org/2000/svg">
<path d="M1 0.945798C0.447715 0.945798 0 1.39351 0 1.9458V2.83742H10V1.9458C10 1.39351 9.55229 0.945798 9 0.945798H8.09524H5H1.90476H1Z" fill="white"/>
<path d="M0 4.25614L1.53532 14.1533C1.61091 14.6405 2.0304 15 2.5235 15H7.4765C7.9696 15 8.38909 14.6405 8.46468 14.1533L10 4.25614H0Z" fill="white"/>
<path d="M1.90476 0.945798H5H8.09524C8.09524 0.945798 6.04476 -1.52588e-05 5 -1.52588e-05C3.95525 -1.52588e-05 1.90476 0.945798 1.90476 0.945798Z" fill="white"/>
</svg>
